<svg width="118" height="19" viewBox="0 0 118 19" fill="none" xmlns="http://www.w3.org/2000/svg">
<path d="M12.072 4.92C12.488 4.92 12.832 5.056 13.104 5.328C13.376 5.6 13.512 5.952 13.512 6.384V16.536C13.512 16.952 13.376 17.304 13.104 17.592C12.832 17.864 12.488 18 12.072 18C11.656 18 11.312 17.864 11.04 17.592C10.768 17.304 10.632 16.952 10.632 16.536V15.36L11.16 15.576C11.16 15.784 11.048 16.04 10.824 16.344C10.6 16.632 10.296 16.92 9.912 17.208C9.528 17.496 9.072 17.744 8.544 17.952C8.032 18.144 7.472 18.24 6.864 18.24C5.76 18.24 4.76 17.96 3.864 17.4C2.968 16.824 2.256 16.04 1.728 15.048C1.216 14.04 0.96 12.888 0.96 11.592C0.96 10.28 1.216 9.128 1.728 8.136C2.256 7.128 2.96 6.344 3.84 5.784C4.72 5.208 5.696 4.92 6.768 4.92C7.456 4.92 8.088 5.024 8.664 5.232C9.24 5.44 9.736 5.704 10.152 6.024C10.584 6.344 10.912 6.672 11.136 7.008C11.376 7.328 11.496 7.6 11.496 7.824L10.632 8.136V6.384C10.632 5.968 10.768 5.624 11.04 5.352C11.312 5.064 11.656 4.92 12.072 4.92ZM7.224 15.6C7.928 15.6 8.544 15.424 9.072 15.072C9.6 14.72 10.008 14.24 10.296 13.632C10.6 13.024 10.752 12.344 10.752 11.592C10.752 10.824 10.6 10.136 10.296 9.528C10.008 8.92 9.6 8.44 9.072 8.088C8.544 7.736 7.928 7.56 7.224 7.56C6.536 7.56 5.928 7.736 5.4 8.088C4.872 8.44 4.456 8.92 4.152 9.528C3.864 10.136 3.72 10.824 3.72 11.592C3.72 12.344 3.864 13.024 4.152 13.632C4.456 14.24 4.872 14.72 5.4 15.072C5.928 15.424 6.536 15.6 7.224 15.6ZM16.9251 5.16C17.2291 5.16 17.5091 5.24 17.7651 5.4C18.0211 5.544 18.2131 5.768 18.3411 6.072L21.8691 14.136L21.3411 14.376L24.9411 6.096C25.2131 5.456 25.6371 5.152 26.2131 5.184C26.6131 5.184 26.9331 5.312 27.1731 5.568C27.4291 5.808 27.5571 6.112 27.5571 6.48C27.5571 6.592 27.5331 6.712 27.4851 6.84C27.4531 6.968 27.4131 7.088 27.3651 7.2L22.8771 17.088C22.6211 17.664 22.2131 17.968 21.6531 18C21.3491 18.048 21.0531 17.992 20.7651 17.832C20.4931 17.672 20.2851 17.424 20.1411 17.088L15.6771 7.2C15.6451 7.12 15.6051 7.016 15.5571 6.888C15.5251 6.76 15.5091 6.608 15.5091 6.432C15.5091 6.144 15.6371 5.864 15.8931 5.592C16.1491 5.304 16.4931 5.16 16.9251 5.16ZM40.2908 4.92C40.7068 4.92 41.0508 5.056 41.3228 5.328C41.5948 5.6 41.7308 5.952 41.7308 6.384V16.536C41.7308 16.952 41.5948 17.304 41.3228 17.592C41.0508 17.864 40.7068 18 40.2908 18C39.8748 18 39.5308 17.864 39.2588 17.592C38.9868 17.304 38.8508 16.952 38.8508 16.536V15.36L39.3788 15.576C39.3788 15.784 39.2668 16.04 39.0428 16.344C38.8188 16.632 38.5148 16.92 38.1308 17.208C37.7468 17.496 37.2908 17.744 36.7628 17.952C36.2508 18.144 35.6908 18.24 35.0828 18.24C33.9788 18.24 32.9788 17.96 32.0828 17.4C31.1868 16.824 30.4748 16.04 29.9468 15.048C29.4348 14.04 29.1788 12.888 29.1788 11.592C29.1788 10.28 29.4348 9.128 29.9468 8.136C30.4748 7.128 31.1788 6.344 32.0588 5.784C32.9388 5.208 33.9148 4.92 34.9868 4.92C35.6748 4.92 36.3068 5.024 36.8828 5.232C37.4588 5.44 37.9548 5.704 38.3708 6.024C38.8028 6.344 39.1308 6.672 39.3548 7.008C39.5948 7.328 39.7148 7.6 39.7148 7.824L38.8508 8.136V6.384C38.8508 5.968 38.9868 5.624 39.2588 5.352C39.5308 5.064 39.8748 4.92 40.2908 4.92ZM35.4428 15.6C36.1468 15.6 36.7628 15.424 37.2908 15.072C37.8188 14.72 38.2268 14.24 38.5148 13.632C38.8188 13.024 38.9708 12.344 38.9708 11.592C38.9708 10.824 38.8188 10.136 38.5148 9.528C38.2268 8.92 37.8188 8.44 37.2908 8.088C36.7628 7.736 36.1468 7.56 35.4428 7.56C34.7548 7.56 34.1468 7.736 33.6188 8.088C33.0908 8.44 32.6748 8.92 32.3708 9.528C32.0828 10.136 31.9388 10.824 31.9388 11.592C31.9388 12.344 32.0828 13.024 32.3708 13.632C32.6748 14.24 33.0908 14.72 33.6188 15.072C34.1468 15.424 34.7548 15.6 35.4428 15.6ZM51.7131 4.92C52.8971 4.92 53.7931 5.168 54.4011 5.664C55.0251 6.16 55.4491 6.824 55.6731 7.656C55.9131 8.472 56.0331 9.384 56.0331 10.392V16.536C56.0331 16.952 55.8971 17.304 55.6251 17.592C55.3531 17.864 55.0091 18 54.5931 18C54.1771 18 53.8331 17.864 53.5611 17.592C53.2891 17.304 53.1531 16.952 53.1531 16.536V10.392C53.1531 9.864 53.0811 9.392 52.9371 8.976C52.8091 8.544 52.5691 8.2 52.2171 7.944C51.8651 7.688 51.3611 7.56 50.7051 7.56C50.0651 7.56 49.5211 7.688 49.0731 7.944C48.6411 8.2 48.3051 8.544 48.0651 8.976C47.8411 9.392 47.7291 9.864 47.7291 10.392V16.536C47.7291 16.952 47.5931 17.304 47.3211 17.592C47.0491 17.864 46.7051 18 46.2891 18C45.8731 18 45.5291 17.864 45.2571 17.592C44.9851 17.304 44.8491 16.952 44.8491 16.536V6.624C44.8491 6.208 44.9851 5.864 45.2571 5.592C45.5291 5.304 45.8731 5.16 46.2891 5.16C46.7051 5.16 47.0491 5.304 47.3211 5.592C47.5931 5.864 47.7291 6.208 47.7291 6.624V7.656L47.3691 7.584C47.5131 7.312 47.7211 7.024 47.9931 6.72C48.2651 6.4 48.5851 6.104 48.9531 5.832C49.3211 5.56 49.7371 5.344 50.2011 5.184C50.6651 5.008 51.1691 4.92 51.7131 4.92ZM64.8579 4.92C65.7699 4.92 66.5619 5.016 67.2339 5.208C67.9219 5.4 68.4499 5.672 68.8179 6.024C69.2019 6.36 69.3939 6.768 69.3939 7.248C69.3939 7.568 69.2979 7.872 69.1059 8.16C68.9139 8.432 68.6339 8.568 68.2659 8.568C68.0099 8.568 67.7939 8.536 67.6179 8.472C67.4579 8.392 67.3139 8.296 67.1859 8.184C67.0579 8.072 66.9059 7.968 66.7299 7.872C66.5699 7.776 66.3219 7.704 65.9859 7.656C65.6659 7.592 65.4259 7.56 65.2659 7.56C64.4499 7.56 63.7539 7.736 63.1779 8.088C62.6179 8.44 62.1859 8.92 61.8819 9.528C61.5779 10.12 61.4259 10.808 61.4259 11.592C61.4259 12.36 61.5779 13.048 61.8819 13.656C62.2019 14.248 62.6339 14.72 63.1779 15.072C63.7379 15.424 64.3779 15.6 65.0979 15.6C65.4979 15.6 65.8419 15.576 66.1299 15.528C66.4179 15.48 66.6579 15.408 66.8499 15.312C67.0739 15.184 67.2739 15.048 67.4499 14.904C67.6259 14.76 67.8899 14.688 68.2419 14.688C68.6579 14.688 68.9779 14.824 69.2019 15.096C69.4259 15.352 69.5379 15.672 69.5379 16.056C69.5379 16.456 69.3139 16.824 68.8659 17.16C68.4179 17.48 67.8259 17.744 67.0899 17.952C66.3699 18.144 65.5859 18.24 64.7379 18.24C63.4739 18.24 62.3779 17.952 61.4499 17.376C60.5219 16.784 59.8019 15.984 59.2899 14.976C58.7939 13.968 58.5459 12.84 58.5459 11.592C58.5459 10.28 58.8099 9.128 59.3379 8.136C59.8819 7.128 60.6259 6.344 61.5699 5.784C62.5299 5.208 63.6259 4.92 64.8579 4.92ZM77.6627 18.24C76.3027 18.24 75.1187 17.96 74.1107 17.4C73.1187 16.824 72.3507 16.048 71.8067 15.072C71.2787 14.096 71.0147 12.992 71.0147 11.76C71.0147 10.32 71.3027 9.096 71.8787 8.088C72.4707 7.064 73.2387 6.28 74.1827 5.736C75.1267 5.192 76.1267 4.92 77.1827 4.92C77.9987 4.92 78.7667 5.088 79.4867 5.424C80.2227 5.76 80.8707 6.224 81.4307 6.816C81.9907 7.392 82.4307 8.064 82.7507 8.832C83.0867 9.6 83.2547 10.416 83.2547 11.28C83.2387 11.664 83.0867 11.976 82.7987 12.216C82.5107 12.456 82.1747 12.576 81.7907 12.576H72.6227L71.9027 10.176H80.7107L80.1827 10.656V10.008C80.1507 9.544 79.9827 9.128 79.6787 8.76C79.3907 8.392 79.0227 8.104 78.5747 7.896C78.1427 7.672 77.6787 7.56 77.1827 7.56C76.7027 7.56 76.2547 7.624 75.8387 7.752C75.4227 7.88 75.0627 8.096 74.7587 8.4C74.4547 8.704 74.2147 9.112 74.0387 9.624C73.8627 10.136 73.7747 10.784 73.7747 11.568C73.7747 12.432 73.9507 13.168 74.3027 13.776C74.6707 14.368 75.1347 14.824 75.6947 15.144C76.2707 15.448 76.8787 15.6 77.5187 15.6C78.1107 15.6 78.5827 15.552 78.9347 15.456C79.2867 15.36 79.5667 15.248 79.7747 15.12C79.9987 14.976 80.1987 14.856 80.3747 14.76C80.6627 14.616 80.9347 14.544 81.1907 14.544C81.5427 14.544 81.8307 14.664 82.0547 14.904C82.2947 15.144 82.4147 15.424 82.4147 15.744C82.4147 16.176 82.1907 16.568 81.7427 16.92C81.3267 17.272 80.7427 17.584 79.9907 17.856C79.2387 18.112 78.4627 18.24 77.6627 18.24ZM87.2109 18C86.7949 18 86.4509 17.864 86.1789 17.592C85.9069 17.304 85.7709 16.952 85.7709 16.536V6.624C85.7709 6.208 85.9069 5.864 86.1789 5.592C86.4509 5.304 86.7949 5.16 87.2109 5.16C87.6269 5.16 87.9709 5.304 88.2429 5.592C88.5149 5.864 88.6509 6.208 88.6509 6.624V8.88L88.4829 7.272C88.6589 6.888 88.8829 6.552 89.1549 6.264C89.4429 5.96 89.7629 5.712 90.1149 5.52C90.4669 5.312 90.8429 5.16 91.2429 5.064C91.6429 4.968 92.0429 4.92 92.4429 4.92C92.9229 4.92 93.3229 5.056 93.6429 5.328C93.9789 5.6 94.1469 5.92 94.1469 6.288C94.1469 6.816 94.0109 7.2 93.7389 7.44C93.4669 7.664 93.1709 7.776 92.8509 7.776C92.5469 7.776 92.2669 7.72 92.0109 7.608C91.7709 7.496 91.4909 7.44 91.1709 7.44C90.8829 7.44 90.5869 7.512 90.2829 7.656C89.9949 7.784 89.7229 7.992 89.4669 8.28C89.2269 8.568 89.0269 8.928 88.8669 9.36C88.7229 9.776 88.6509 10.272 88.6509 10.848V16.536C88.6509 16.952 88.5149 17.304 88.2429 17.592C87.9709 17.864 87.6269 18 87.2109 18ZM94.5898 17.976C94.1258 17.976 93.7658 17.856 93.5098 17.616C93.2698 17.36 93.1498 17 93.1498 16.536V16.128C93.1498 15.664 93.2698 15.312 93.5098 15.072C93.7658 14.816 94.1258 14.688 94.5898 14.688H94.9018C95.3658 14.688 95.7178 14.816 95.9578 15.072C96.2138 15.312 96.3418 15.664 96.3418 16.128V16.536C96.3418 17 96.2138 17.36 95.9578 17.616C95.7178 17.856 95.3658 17.976 94.9018 17.976H94.5898ZM109.806 4.92C110.222 4.92 110.566 5.056 110.838 5.328C111.11 5.6 111.246 5.952 111.246 6.384V16.536C111.246 16.952 111.11 17.304 110.838 17.592C110.566 17.864 110.222 18 109.806 18C109.39 18 109.046 17.864 108.774 17.592C108.502 17.304 108.366 16.952 108.366 16.536V15.36L108.894 15.576C108.894 15.784 108.782 16.04 108.558 16.344C108.334 16.632 108.03 16.92 107.646 17.208C107.262 17.496 106.806 17.744 106.278 17.952C105.766 18.144 105.206 18.24 104.598 18.24C103.494 18.24 102.494 17.96 101.598 17.4C100.702 16.824 99.9904 16.04 99.4624 15.048C98.9504 14.04 98.6944 12.888 98.6944 11.592C98.6944 10.28 98.9504 9.128 99.4624 8.136C99.9904 7.128 100.694 6.344 101.574 5.784C102.454 5.208 103.43 4.92 104.502 4.92C105.19 4.92 105.822 5.024 106.398 5.232C106.974 5.44 107.47 5.704 107.886 6.024C108.318 6.344 108.646 6.672 108.87 7.008C109.11 7.328 109.23 7.6 109.23 7.824L108.366 8.136V6.384C108.366 5.968 108.502 5.624 108.774 5.352C109.046 5.064 109.39 4.92 109.806 4.92ZM104.958 15.6C105.662 15.6 106.278 15.424 106.806 15.072C107.334 14.72 107.742 14.24 108.03 13.632C108.334 13.024 108.486 12.344 108.486 11.592C108.486 10.824 108.334 10.136 108.03 9.528C107.742 8.92 107.334 8.44 106.806 8.088C106.278 7.736 105.662 7.56 104.958 7.56C104.27 7.56 103.662 7.736 103.134 8.088C102.606 8.44 102.19 8.92 101.886 9.528C101.598 10.136 101.454 10.824 101.454 11.592C101.454 12.344 101.598 13.024 101.886 13.632C102.19 14.24 102.606 14.72 103.134 15.072C103.662 15.424 104.27 15.6 104.958 15.6ZM117.077 16.536C117.077 16.952 116.941 17.304 116.669 17.592C116.397 17.864 116.053 18 115.637 18C115.221 18 114.877 17.864 114.605 17.592C114.333 17.304 114.197 16.952 114.197 16.536V6.624C114.197 6.208 114.333 5.864 114.605 5.592C114.877 5.304 115.221 5.16 115.637 5.16C116.053 5.16 116.397 5.304 116.669 5.592C116.941 5.864 117.077 6.208 117.077 6.624V16.536ZM115.613 3.6C115.069 3.6 114.685 3.512 114.461 3.336C114.237 3.16 114.125 2.848 114.125 2.4V1.944C114.125 1.48 114.245 1.168 114.485 1.008C114.741 0.831999 115.125 0.743999 115.637 0.743999C116.197 0.743999 116.589 0.831999 116.813 1.008C117.037 1.184 117.149 1.496 117.149 1.944V2.4C117.149 2.864 117.029 3.184 116.789 3.36C116.549 3.52 116.157 3.6 115.613 3.6Z" fill="url(#paint0_linear_1_9784)"/>
<defs>
<linearGradient id="paint0_linear_1_9784" x1="32.3328" y1="-2.01786" x2="101.925" y2="35.4604" gradientUnits="userSpaceOnUse">
<stop stop-color="#678AD9"/>
<stop offset="0.546667" stop-color="#D66BCD"/>
<stop offset="1" stop-color="#990897"/>
</linearGradient>
</defs>
</svg>
